<?xml version="1.0" encoding="UTF-8" standalone="no"?>
<!DOCTYPE svg PUBLIC "-//W3C//DTD SVG 1.1//EN"
 "http://www.w3.org/Graphics/SVG/1.1/DTD/svg11.dtd">
<!-- Generated by graphviz version 9.0.0 (20230911.1827)
 -->
<!-- Pages: 1 -->
<svg width="2028pt" height="1052pt"
 viewBox="0.00 0.00 2028.00 1052.00" xmlns="http://www.w3.org/2000/svg" xmlns:xlink="http://www.w3.org/1999/xlink">
<g id="graph0" class="graph" transform="scale(1 1) rotate(0) translate(4 1048)">
<polygon fill="white" stroke="none" points="-4,4 -4,-1048 2024,-1048 2024,4 -4,4"/>
<!-- lt -->
<g id="node1" class="node">
<title>lt</title>
<ellipse fill="none" stroke="blue" cx="134" cy="-1026" rx="27" ry="18"/>
<text text-anchor="middle" x="134" y="-1020.95" font-family="Times,serif" font-size="14.00">lt</text>
</g>
<!-- ng -->
<g id="node2" class="node">
<title>ng</title>
<ellipse fill="none" stroke="blue" cx="189" cy="-954" rx="27" ry="18"/>
<text text-anchor="middle" x="189" y="-948.95" font-family="Times,serif" font-size="14.00">ng</text>
</g>
<!-- lt&#45;&gt;ng -->
<g id="edge1" class="edge">
<title>lt&#45;&gt;ng</title>
<path fill="none" stroke="black" d="M146.21,-1009.46C153.11,-1000.67 161.91,-989.48 169.73,-979.53"/>
<polygon fill="black" stroke="black" points="172.47,-981.71 175.89,-971.68 166.96,-977.38 172.47,-981.71"/>
</g>
<!-- vr -->
<g id="node3" class="node">
<title>vr</title>
<ellipse fill="none" stroke="green" cx="209" cy="-810" rx="27" ry="18"/>
<text text-anchor="middle" x="209" y="-804.95" font-family="Times,serif" font-size="14.00">vr</text>
</g>
<!-- lt&#45;&gt;vr -->
<g id="edge2" class="edge">
<title>lt&#45;&gt;vr</title>
<path fill="none" stroke="black" d="M136.59,-1007.65C139.55,-989.51 145.05,-960.33 153,-936 164.51,-900.75 182.78,-862.07 195.3,-837.21"/>
<polygon fill="black" stroke="black" points="198.32,-838.99 199.75,-828.49 192.09,-835.81 198.32,-838.99"/>
</g>
<!-- ng&#45;&gt;vr -->
<g id="edge33" class="edge">
<title>ng&#45;&gt;vr</title>
<path fill="none" stroke="black" d="M190.92,-935.57C192.95,-917.61 196.36,-888.8 200,-864 201.17,-856.03 202.57,-847.41 203.92,-839.48"/>
<polygon fill="black" stroke="black" points="207.37,-840.1 205.63,-829.65 200.47,-838.9 207.37,-840.1"/>
</g>
<!-- gx -->
<g id="node35" class="node">
<title>gx</title>
<ellipse fill="none" stroke="blue" cx="236" cy="-882" rx="27" ry="18"/>
<text text-anchor="middle" x="236" y="-876.95" font-family="Times,serif" font-size="14.00">gx</text>
</g>
<!-- ng&#45;&gt;gx -->
<g id="edge34" class="edge">
<title>ng&#45;&gt;gx</title>
<path fill="none" stroke="black" d="M199.67,-937.12C205.37,-928.61 212.54,-917.94 219,-908.32"/>
<polygon fill="black" stroke="black" points="221.86,-910.33 224.53,-900.08 216.05,-906.43 221.86,-910.33"/>
</g>
<!-- tx -->
<g id="node10" class="node">
<title>tx</title>
<ellipse fill="none" stroke="blue" cx="321" cy="-738" rx="27" ry="18"/>
<text text-anchor="middle" x="321" y="-732.95" font-family="Times,serif" font-size="14.00">tx</text>
</g>
<!-- vr&#45;&gt;tx -->
<g id="edge65" class="edge">
<title>vr&#45;&gt;tx</title>
<path fill="none" stroke="black" d="M225.14,-795.5C242.09,-783.9 268.81,-767.13 289.83,-754.88"/>
<polygon fill="black" stroke="black" points="291.37,-758.03 298.31,-750.02 287.89,-751.96 291.37,-758.03"/>
</g>
<!-- jg -->
<g id="node37" class="node">
<title>jg</title>
<ellipse fill="none" stroke="blue" cx="283" cy="-666" rx="27" ry="18"/>
<text text-anchor="middle" x="283" y="-660.95" font-family="Times,serif" font-size="14.00">jg</text>
</g>
<!-- vr&#45;&gt;jg -->
<g id="edge68" class="edge">
<title>vr&#45;&gt;jg</title>
<path fill="none" stroke="black" d="M219.65,-793.07C226.39,-782.71 235.11,-768.79 242,-756 252.91,-735.76 263.73,-712.08 271.51,-694.24"/>
<polygon fill="black" stroke="black" points="274.71,-695.66 275.45,-685.1 268.28,-692.89 274.71,-695.66"/>
</g>
<!-- tr -->
<g id="node45" class="node">
<title>tr</title>
<ellipse fill="none" stroke="blue" cx="93" cy="-234" rx="27" ry="18"/>
<text text-anchor="middle" x="93" y="-228.95" font-family="Times,serif" font-size="14.00">tr</text>
</g>
<!-- vr&#45;&gt;tr -->
<g id="edge63" class="edge">
<title>vr&#45;&gt;tr</title>
<path fill="none" stroke="black" d="M187.63,-798.66C150.04,-778.81 76,-731.52 76,-667 76,-667 76,-667 76,-377 76,-337.24 82.65,-291.67 87.63,-263.1"/>
<polygon fill="black" stroke="black" points="91.04,-263.92 89.37,-253.46 84.15,-262.68 91.04,-263.92"/>
</g>
<!-- kk -->
<g id="node50" class="node">
<title>kk</title>
<ellipse fill="none" stroke="blue" cx="207" cy="-450" rx="27" ry="18"/>
<text text-anchor="middle" x="207" y="-444.95" font-family="Times,serif" font-size="14.00">kk</text>
</g>
<!-- vr&#45;&gt;kk -->
<g id="edge67" class="edge">
<title>vr&#45;&gt;kk</title>
<path fill="none" stroke="black" d="M205.25,-792.05C199.71,-765.52 190,-712.52 190,-667 190,-667 190,-667 190,-593 190,-553.24 196.65,-507.67 201.63,-479.1"/>
<polygon fill="black" stroke="black" points="205.04,-479.92 203.37,-469.46 198.15,-478.68 205.04,-479.92"/>
</g>
<!-- vf -->
<g id="node51" class="node">
<title>vf</title>
<ellipse fill="none" stroke="blue" cx="169" cy="-378" rx="27" ry="18"/>
<text text-anchor="middle" x="169" y="-372.95" font-family="Times,serif" font-size="14.00">vf</text>
</g>
<!-- vr&#45;&gt;vf -->
<g id="edge64" class="edge">
<title>vr&#45;&gt;vf</title>
<path fill="none" stroke="black" d="M198.01,-793.22C181.45,-767.85 152,-715.88 152,-667 152,-667 152,-667 152,-521 152,-481.24 158.65,-435.67 163.63,-407.1"/>
<polygon fill="black" stroke="black" points="167.04,-407.92 165.37,-397.46 160.15,-406.68 167.04,-407.92"/>
</g>
<!-- ks -->
<g id="node54" class="node">
<title>ks</title>
<ellipse fill="none" stroke="green" cx="883" cy="-738" rx="27" ry="18"/>
<text text-anchor="middle" x="883" y="-732.95" font-family="Times,serif" font-size="14.00">ks</text>
</g>
<!-- vr&#45;&gt;ks -->
<g id="edge66" class="edge">
<title>vr&#45;&gt;ks</title>
<path fill="none" stroke="black" d="M235.97,-807C317.06,-800.88 565.76,-781.23 771,-756 795.99,-752.93 823.98,-748.68 845.74,-745.2"/>
<polygon fill="black" stroke="black" points="846,-748.7 855.31,-743.65 844.88,-741.79 846,-748.7"/>
</g>
<!-- gb -->
<g id="node4" class="node">
<title>gb</title>
<ellipse fill="none" stroke="blue" cx="526" cy="-234" rx="27" ry="18"/>
<text text-anchor="middle" x="526" y="-228.95" font-family="Times,serif" font-size="14.00">gb</text>
</g>
<!-- vj -->
<g id="node5" class="node">
<title>vj</title>
<ellipse fill="none" stroke="blue" cx="640" cy="-162" rx="27" ry="18"/>
<text text-anchor="middle" x="640" y="-156.95" font-family="Times,serif" font-size="14.00">vj</text>
</g>
<!-- gb&#45;&gt;vj -->
<g id="edge3" class="edge">
<title>gb&#45;&gt;vj</title>
<path fill="none" stroke="black" d="M545.34,-221.13C563.27,-210.11 590.21,-193.57 610.77,-180.95"/>
<polygon fill="black" stroke="black" points="612.59,-183.94 619.28,-175.72 608.92,-177.97 612.59,-183.94"/>
</g>
<!-- xd -->
<g id="node6" class="node">
<title>xd</title>
<ellipse fill="none" stroke="green" cx="651" cy="-810" rx="27" ry="18"/>
<text text-anchor="middle" x="651" y="-804.95" font-family="Times,serif" font-size="14.00">xd</text>
</g>
<!-- gb&#45;&gt;xd -->
<g id="edge4" class="edge">
<title>gb&#45;&gt;xd</title>
<path fill="none" stroke="black" d="M512.08,-249.84C490.65,-274.32 452,-325.57 452,-377 452,-667 452,-667 452,-667 452,-712.37 467.31,-726.76 502,-756 533.97,-782.95 580.64,-796.59 613.2,-803.22"/>
<polygon fill="black" stroke="black" points="612.54,-806.66 623.01,-805.08 613.84,-799.78 612.54,-806.66"/>
</g>
<!-- vj&#45;&gt;xd -->
<g id="edge54" class="edge">
<title>vj&#45;&gt;xd</title>
<path fill="none" stroke="black" d="M662.78,-171.99C704.74,-190.23 790,-235.79 790,-305 790,-667 790,-667 790,-667 790,-707.45 796.51,-724.62 771,-756 750.38,-781.36 715.17,-794.94 688.21,-801.98"/>
<polygon fill="black" stroke="black" points="687.61,-798.53 678.7,-804.26 689.24,-805.33 687.61,-798.53"/>
</g>
<!-- hd -->
<g id="node16" class="node">
<title>hd</title>
<ellipse fill="none" stroke="blue" cx="640" cy="-90" rx="27" ry="18"/>
<text text-anchor="middle" x="640" y="-84.95" font-family="Times,serif" font-size="14.00">hd</text>
</g>
<!-- vj&#45;&gt;hd -->
<g id="edge55" class="edge">
<title>vj&#45;&gt;hd</title>
<path fill="none" stroke="black" d="M640,-143.7C640,-136.41 640,-127.73 640,-119.54"/>
<polygon fill="black" stroke="black" points="643.5,-119.62 640,-109.62 636.5,-119.62 643.5,-119.62"/>
</g>
<!-- qz -->
<g id="node9" class="node">
<title>qz</title>
<ellipse fill="none" stroke="blue" cx="688" cy="-882" rx="27" ry="18"/>
<text text-anchor="middle" x="688" y="-876.95" font-family="Times,serif" font-size="14.00">qz</text>
</g>
<!-- xd&#45;&gt;qz -->
<g id="edge87" class="edge">
<title>xd&#45;&gt;qz</title>
<path fill="none" stroke="black" d="M664.41,-825.74C669.68,-833.79 675.42,-844.02 680.07,-853.49"/>
<polygon fill="black" stroke="black" points="676.77,-854.7 684.14,-862.32 683.13,-851.77 676.77,-854.7"/>
</g>
<!-- vk -->
<g id="node13" class="node">
<title>vk</title>
<ellipse fill="none" stroke="green" cx="955" cy="-738" rx="27" ry="18"/>
<text text-anchor="middle" x="955" y="-732.95" font-family="Times,serif" font-size="14.00">vk</text>
</g>
<!-- xd&#45;&gt;vk -->
<g id="edge90" class="edge">
<title>xd&#45;&gt;vk</title>
<path fill="none" stroke="black" d="M677.8,-805.92C726.68,-799.81 833.18,-784.27 919,-756 920.56,-755.49 922.14,-754.92 923.72,-754.32"/>
<polygon fill="black" stroke="black" points="924.79,-757.67 932.64,-750.55 922.07,-751.22 924.79,-757.67"/>
</g>
<!-- qx -->
<g id="node15" class="node">
<title>qx</title>
<ellipse fill="none" stroke="blue" cx="526" cy="-306" rx="27" ry="18"/>
<text text-anchor="middle" x="526" y="-300.95" font-family="Times,serif" font-size="14.00">qx</text>
</g>
<!-- xd&#45;&gt;qx -->
<g id="edge92" class="edge">
<title>xd&#45;&gt;qx</title>
<path fill="none" stroke="black" d="M626.67,-801.98C602.59,-794.04 565.82,-779.11 541,-756 507.63,-724.93 490,-712.59 490,-667 490,-667 490,-667 490,-449 490,-408.09 504.21,-362.54 514.78,-334.32"/>
<polygon fill="black" stroke="black" points="517.99,-335.7 518.34,-325.11 511.47,-333.17 517.99,-335.7"/>
</g>
<!-- bc -->
<g id="node34" class="node">
<title>bc</title>
<ellipse fill="none" stroke="blue" cx="545" cy="-378" rx="27" ry="18"/>
<text text-anchor="middle" x="545" y="-372.95" font-family="Times,serif" font-size="14.00">bc</text>
</g>
<!-- xd&#45;&gt;bc -->
<g id="edge88" class="edge">
<title>xd&#45;&gt;bc</title>
<path fill="none" stroke="black" d="M630.41,-797.74C595.4,-776.92 528,-728.81 528,-667 528,-667 528,-667 528,-521 528,-481.24 534.65,-435.67 539.63,-407.1"/>
<polygon fill="black" stroke="black" points="543.04,-407.92 541.37,-397.46 536.15,-406.68 543.04,-407.92"/>
</g>
<!-- hq -->
<g id="node39" class="node">
<title>hq</title>
<ellipse fill="none" stroke="blue" cx="659" cy="-594" rx="27" ry="18"/>
<text text-anchor="middle" x="659" y="-588.95" font-family="Times,serif" font-size="14.00">hq</text>
</g>
<!-- xd&#45;&gt;hq -->
<g id="edge91" class="edge">
<title>xd&#45;&gt;hq</title>
<path fill="none" stroke="black" d="M651.64,-791.85C653.01,-755.14 656.25,-668.66 657.93,-623.53"/>
<polygon fill="black" stroke="black" points="661.42,-623.87 658.3,-613.74 654.43,-623.61 661.42,-623.87"/>
</g>
<!-- zt -->
<g id="node47" class="node">
<title>zt</title>
<ellipse fill="none" stroke="blue" cx="621" cy="-522" rx="27" ry="18"/>
<text text-anchor="middle" x="621" y="-516.95" font-family="Times,serif" font-size="14.00">zt</text>
</g>
<!-- xd&#45;&gt;zt -->
<g id="edge89" class="edge">
<title>xd&#45;&gt;zt</title>
<path fill="none" stroke="black" d="M647.83,-791.69C641.73,-757.49 628.48,-678.79 623,-612 621.36,-591.95 620.87,-569.27 620.78,-551.83"/>
<polygon fill="black" stroke="black" points="624.28,-551.94 620.78,-541.94 617.28,-551.94 624.28,-551.94"/>
</g>
<!-- gc -->
<g id="node58" class="node">
<title>gc</title>
<ellipse fill="none" stroke="blue" cx="735" cy="-738" rx="27" ry="18"/>
<text text-anchor="middle" x="735" y="-732.95" font-family="Times,serif" font-size="14.00">gc</text>
</g>
<!-- xd&#45;&gt;gc -->
<g id="edge93" class="edge">
<title>xd&#45;&gt;gc</title>
<path fill="none" stroke="black" d="M667.2,-795.5C679.32,-785.4 696.13,-771.39 709.97,-759.86"/>
<polygon fill="black" stroke="black" points="711.96,-762.75 717.4,-753.66 707.48,-757.38 711.96,-762.75"/>
</g>
<!-- mg -->
<g id="node7" class="node">
<title>mg</title>
<ellipse fill="none" stroke="blue" cx="527" cy="-18" rx="27" ry="18"/>
<text text-anchor="middle" x="527" y="-12.95" font-family="Times,serif" font-size="14.00">mg</text>
</g>
<!-- mg&#45;&gt;xd -->
<g id="edge5" class="edge">
<title>mg&#45;&gt;xd</title>
<path fill="none" stroke="black" d="M507.57,-31.02C475.27,-52.69 414,-101.61 414,-161 414,-667 414,-667 414,-667 414,-711.94 426.91,-727.92 462,-756 505.81,-791.05 571.44,-802.94 612.7,-806.96"/>
<polygon fill="black" stroke="black" points="612.14,-810.42 622.4,-807.79 612.74,-803.45 612.14,-810.42"/>
</g>
<!-- broadcaster -->
<g id="node8" class="node">
<title>broadcaster</title>
<ellipse fill="none" stroke="red" cx="1001" cy="-954" rx="53.4" ry="18"/>
<text text-anchor="middle" x="1001" y="-948.95" font-family="Times,serif" font-size="14.00">broadcaster</text>
</g>
<!-- broadcaster&#45;&gt;qz -->
<g id="edge6" class="edge">
<title>broadcaster&#45;&gt;qz</title>
<path fill="none" stroke="black" d="M957.48,-943.27C895.4,-929.38 782.55,-904.15 724.56,-891.18"/>
<polygon fill="black" stroke="black" points="725.39,-887.78 714.87,-889.01 723.86,-894.61 725.39,-887.78"/>
</g>
<!-- broadcaster&#45;&gt;tx -->
<g id="edge7" class="edge">
<title>broadcaster&#45;&gt;tx</title>
<path fill="none" stroke="black" d="M948.45,-949.97C879.17,-944.86 754.11,-931.78 652,-900 534.25,-863.35 405.92,-790.46 349.89,-756.8"/>
<polygon fill="black" stroke="black" points="351.95,-753.96 341.58,-751.77 348.32,-759.94 351.95,-753.96"/>
</g>
<!-- jr -->
<g id="node11" class="node">
<title>jr</title>
<ellipse fill="none" stroke="blue" cx="1758" cy="-882" rx="27" ry="18"/>
<text text-anchor="middle" x="1758" y="-876.95" font-family="Times,serif" font-size="14.00">jr</text>
</g>
<!-- broadcaster&#45;&gt;jr -->
<g id="edge8" class="edge">
<title>broadcaster&#45;&gt;jr</title>
<path fill="none" stroke="black" d="M1052.14,-948.27C1194.68,-935.09 1594.18,-898.15 1719.74,-886.54"/>
<polygon fill="black" stroke="black" points="1719.87,-890.04 1729.51,-885.63 1719.23,-883.07 1719.87,-890.04"/>
</g>
<!-- hk -->
<g id="node12" class="node">
<title>hk</title>
<ellipse fill="none" stroke="blue" cx="1315" cy="-882" rx="27" ry="18"/>
<text text-anchor="middle" x="1315" y="-876.95" font-family="Times,serif" font-size="14.00">hk</text>
</g>
<!-- broadcaster&#45;&gt;hk -->
<g id="edge9" class="edge">
<title>broadcaster&#45;&gt;hk</title>
<path fill="none" stroke="black" d="M1044.66,-943.27C1106.93,-929.38 1220.14,-904.15 1278.32,-891.18"/>
<polygon fill="black" stroke="black" points="1279.05,-894.6 1288.05,-889.01 1277.53,-887.77 1279.05,-894.6"/>
</g>
<!-- qz&#45;&gt;xd -->
<g id="edge94" class="edge">
<title>qz&#45;&gt;xd</title>
<path fill="none" stroke="black" d="M674.52,-866.15C669.26,-858.11 663.54,-847.9 658.91,-838.47"/>
<polygon fill="black" stroke="black" points="662.22,-837.29 654.86,-829.67 655.86,-840.21 662.22,-837.29"/>
</g>
<!-- qz&#45;&gt;gc -->
<g id="edge95" class="edge">
<title>qz&#45;&gt;gc</title>
<path fill="none" stroke="black" d="M693.58,-864.15C701.56,-840.03 716.35,-795.36 725.92,-766.43"/>
<polygon fill="black" stroke="black" points="729.14,-767.86 728.96,-757.26 722.49,-765.66 729.14,-767.86"/>
</g>
<!-- tx&#45;&gt;vr -->
<g id="edge38" class="edge">
<title>tx&#45;&gt;vr</title>
<path fill="none" stroke="black" d="M304.5,-752.75C287.53,-764.34 261.07,-780.94 240.21,-793.1"/>
<polygon fill="black" stroke="black" points="238.73,-789.91 231.79,-797.92 242.21,-795.98 238.73,-789.91"/>
</g>
<!-- tx&#45;&gt;jg -->
<g id="edge37" class="edge">
<title>tx&#45;&gt;jg</title>
<path fill="none" stroke="black" d="M312.19,-720.76C307.73,-712.55 302.2,-702.37 297.16,-693.09"/>
<polygon fill="black" stroke="black" points="300.33,-691.6 292.49,-684.48 294.18,-694.94 300.33,-691.6"/>
</g>
<!-- ts -->
<g id="node24" class="node">
<title>ts</title>
<ellipse fill="none" stroke="green" cx="1758" cy="-810" rx="27" ry="18"/>
<text text-anchor="middle" x="1758" y="-804.95" font-family="Times,serif" font-size="14.00">ts</text>
</g>
<!-- jr&#45;&gt;ts -->
<g id="edge60" class="edge">
<title>jr&#45;&gt;ts</title>
<path fill="none" stroke="black" d="M1752.12,-864.05C1751.33,-856.57 1751.08,-847.58 1751.37,-839.14"/>
<polygon fill="black" stroke="black" points="1754.85,-839.51 1752.04,-829.3 1747.87,-839.04 1754.85,-839.51"/>
</g>
<!-- qm -->
<g id="node28" class="node">
<title>qm</title>
<ellipse fill="none" stroke="blue" cx="1813" cy="-738" rx="27" ry="18"/>
<text text-anchor="middle" x="1813" y="-732.95" font-family="Times,serif" font-size="14.00">qm</text>
</g>
<!-- jr&#45;&gt;qm -->
<g id="edge61" class="edge">
<title>jr&#45;&gt;qm</title>
<path fill="none" stroke="black" d="M1770.75,-865.7C1778.56,-855.59 1788.15,-841.71 1794,-828 1802.26,-808.66 1807.06,-785.38 1809.77,-767.48"/>
<polygon fill="black" stroke="black" points="1813.21,-768.21 1811.1,-757.83 1806.27,-767.26 1813.21,-768.21"/>
</g>
<!-- pf -->
<g id="node20" class="node">
<title>pf</title>
<ellipse fill="none" stroke="green" cx="1315" cy="-810" rx="27" ry="18"/>
<text text-anchor="middle" x="1315" y="-804.95" font-family="Times,serif" font-size="14.00">pf</text>
</g>
<!-- hk&#45;&gt;pf -->
<g id="edge71" class="edge">
<title>hk&#45;&gt;pf</title>
<path fill="none" stroke="black" d="M1309.12,-864.05C1308.33,-856.57 1308.08,-847.58 1308.37,-839.14"/>
<polygon fill="black" stroke="black" points="1311.85,-839.51 1309.04,-829.3 1304.87,-839.04 1311.85,-839.51"/>
</g>
<!-- tv -->
<g id="node52" class="node">
<title>tv</title>
<ellipse fill="none" stroke="blue" cx="1399" cy="-738" rx="27" ry="18"/>
<text text-anchor="middle" x="1399" y="-732.95" font-family="Times,serif" font-size="14.00">tv</text>
</g>
<!-- hk&#45;&gt;tv -->
<g id="edge72" class="edge">
<title>hk&#45;&gt;tv</title>
<path fill="none" stroke="black" d="M1326.14,-865.51C1333.48,-855.08 1343.15,-840.93 1351,-828 1363.51,-807.4 1376.4,-783.3 1385.68,-765.38"/>
<polygon fill="black" stroke="black" points="1388.67,-767.2 1390.12,-756.7 1382.45,-764 1388.67,-767.2"/>
</g>
<!-- dt -->
<g id="node14" class="node">
<title>dt</title>
<ellipse fill="none" stroke="green" cx="991" cy="-666" rx="27" ry="18"/>
<text text-anchor="middle" x="991" y="-660.95" font-family="Times,serif" font-size="14.00">dt</text>
</g>
<!-- vk&#45;&gt;dt -->
<g id="edge10" class="edge">
<title>vk&#45;&gt;dt</title>
<path fill="none" stroke="black" d="M963.35,-720.76C967.58,-712.55 972.81,-702.37 977.58,-693.09"/>
<polygon fill="black" stroke="black" points="980.54,-694.99 982,-684.49 974.32,-691.79 980.54,-694.99"/>
</g>
<!-- rx -->
<g id="node43" class="node">
<title>rx</title>
<ellipse fill="none" stroke="black" cx="991" cy="-594" rx="27" ry="18"/>
<text text-anchor="middle" x="991" y="-588.95" font-family="Times,serif" font-size="14.00">rx</text>
</g>
<!-- dt&#45;&gt;rx -->
<g id="edge46" class="edge">
<title>dt&#45;&gt;rx</title>
<path fill="none" stroke="black" d="M991,-647.7C991,-640.41 991,-631.73 991,-623.54"/>
<polygon fill="black" stroke="black" points="994.5,-623.62 991,-613.62 987.5,-623.62 994.5,-623.62"/>
</g>
<!-- qx&#45;&gt;gb -->
<g id="edge11" class="edge">
<title>qx&#45;&gt;gb</title>
<path fill="none" stroke="black" d="M526,-287.7C526,-280.41 526,-271.73 526,-263.54"/>
<polygon fill="black" stroke="black" points="529.5,-263.62 526,-253.62 522.5,-263.62 529.5,-263.62"/>
</g>
<!-- hd&#45;&gt;xd -->
<g id="edge13" class="edge">
<title>hd&#45;&gt;xd</title>
<path fill="none" stroke="black" d="M664.96,-97.2C716.1,-111.56 828,-152.22 828,-233 828,-667 828,-667 828,-667 828,-709.34 824.09,-726.21 794,-756 765.51,-784.2 720.7,-797.59 688.84,-803.81"/>
<polygon fill="black" stroke="black" points="688.46,-800.32 679.23,-805.53 689.69,-807.22 688.46,-800.32"/>
</g>
<!-- hd&#45;&gt;mg -->
<g id="edge12" class="edge">
<title>hd&#45;&gt;mg</title>
<path fill="none" stroke="black" d="M620.57,-76.97C602.76,-65.93 576.14,-49.44 555.85,-36.87"/>
<polygon fill="black" stroke="black" points="557.8,-33.96 547.46,-31.67 554.12,-39.92 557.8,-33.96"/>
</g>
<!-- xz -->
<g id="node17" class="node">
<title>xz</title>
<ellipse fill="none" stroke="blue" cx="38" cy="-162" rx="27" ry="18"/>
<text text-anchor="middle" x="38" y="-156.95" font-family="Times,serif" font-size="14.00">xz</text>
</g>
<!-- xz&#45;&gt;lt -->
<g id="edge14" class="edge">
<title>xz&#45;&gt;lt</title>
<path fill="none" stroke="black" d="M30.49,-179.66C19.42,-205.8 0,-258.3 0,-305 0,-883 0,-883 0,-883 0,-942.43 62.86,-987.06 102.47,-1009.29"/>
<polygon fill="black" stroke="black" points="100.68,-1012.3 111.14,-1013.99 104.01,-1006.15 100.68,-1012.3"/>
</g>
<!-- xz&#45;&gt;vr -->
<g id="edge15" class="edge">
<title>xz&#45;&gt;vr</title>
<path fill="none" stroke="black" d="M38,-180.49C38,-207.29 38,-260.13 38,-305 38,-667 38,-667 38,-667 38,-713.27 57.38,-725.31 92,-756 115.44,-776.78 148.39,-790.72 173.35,-799.06"/>
<polygon fill="black" stroke="black" points="172.16,-802.35 182.75,-802.05 174.28,-795.68 172.16,-802.35"/>
</g>
<!-- vx -->
<g id="node18" class="node">
<title>vx</title>
<ellipse fill="none" stroke="blue" cx="1304" cy="-450" rx="27" ry="18"/>
<text text-anchor="middle" x="1304" y="-444.95" font-family="Times,serif" font-size="14.00">vx</text>
</g>
<!-- lj -->
<g id="node19" class="node">
<title>lj</title>
<ellipse fill="none" stroke="blue" cx="1437" cy="-378" rx="27" ry="18"/>
<text text-anchor="middle" x="1437" y="-372.95" font-family="Times,serif" font-size="14.00">lj</text>
</g>
<!-- vx&#45;&gt;lj -->
<g id="edge16" class="edge">
<title>vx&#45;&gt;lj</title>
<path fill="none" stroke="black" d="M1324.78,-438.06C1346.64,-426.56 1381.29,-408.32 1406.3,-395.16"/>
<polygon fill="black" stroke="black" points="1407.81,-398.32 1415.03,-390.57 1404.55,-392.13 1407.81,-398.32"/>
</g>
<!-- vx&#45;&gt;pf -->
<g id="edge17" class="edge">
<title>vx&#45;&gt;pf</title>
<path fill="none" stroke="black" d="M1290.08,-465.84C1268.65,-490.32 1230,-541.57 1230,-593 1230,-667 1230,-667 1230,-667 1230,-715.01 1266.22,-760.85 1291.37,-786.89"/>
<polygon fill="black" stroke="black" points="1288.8,-789.27 1298.34,-793.87 1293.75,-784.32 1288.8,-789.27"/>
</g>
<!-- lj&#45;&gt;pf -->
<g id="edge21" class="edge">
<title>lj&#45;&gt;pf</title>
<path fill="none" stroke="black" d="M1440.36,-395.97C1445.31,-422.52 1454,-475.56 1454,-521 1454,-667 1454,-667 1454,-667 1454,-707.45 1460.51,-724.62 1435,-756 1414.38,-781.36 1379.17,-794.94 1352.21,-801.98"/>
<polygon fill="black" stroke="black" points="1351.61,-798.53 1342.7,-804.26 1353.24,-805.33 1351.61,-798.53"/>
</g>
<!-- fl -->
<g id="node25" class="node">
<title>fl</title>
<ellipse fill="none" stroke="blue" cx="1456" cy="-306" rx="27" ry="18"/>
<text text-anchor="middle" x="1456" y="-300.95" font-family="Times,serif" font-size="14.00">fl</text>
</g>
<!-- lj&#45;&gt;fl -->
<g id="edge22" class="edge">
<title>lj&#45;&gt;fl</title>
<path fill="none" stroke="black" d="M1441.6,-360.05C1443.65,-352.49 1446.13,-343.37 1448.44,-334.85"/>
<polygon fill="black" stroke="black" points="1451.8,-335.82 1451.05,-325.25 1445.05,-333.98 1451.8,-335.82"/>
</g>
<!-- pf&#45;&gt;hk -->
<g id="edge79" class="edge">
<title>pf&#45;&gt;hk</title>
<path fill="none" stroke="black" d="M1320.86,-827.79C1321.66,-835.25 1321.92,-844.24 1321.64,-852.69"/>
<polygon fill="black" stroke="black" points="1318.16,-852.33 1320.98,-862.54 1325.14,-852.8 1318.16,-852.33"/>
</g>
<!-- pm -->
<g id="node26" class="node">
<title>pm</title>
<ellipse fill="none" stroke="green" cx="1027" cy="-738" rx="27" ry="18"/>
<text text-anchor="middle" x="1027" y="-732.95" font-family="Times,serif" font-size="14.00">pm</text>
</g>
<!-- pf&#45;&gt;pm -->
<g id="edge78" class="edge">
<title>pf&#45;&gt;pm</title>
<path fill="none" stroke="black" d="M1288.34,-805.49C1241.75,-798.89 1142.88,-782.85 1063,-756 1061.44,-755.48 1059.87,-754.9 1058.29,-754.3"/>
<polygon fill="black" stroke="black" points="1059.95,-751.2 1049.37,-750.51 1057.2,-757.64 1059.95,-751.2"/>
</g>
<!-- pp -->
<g id="node48" class="node">
<title>pp</title>
<ellipse fill="none" stroke="blue" cx="1456" cy="-234" rx="27" ry="18"/>
<text text-anchor="middle" x="1456" y="-228.95" font-family="Times,serif" font-size="14.00">pp</text>
</g>
<!-- pf&#45;&gt;pp -->
<g id="edge75" class="edge">
<title>pf&#45;&gt;pp</title>
<path fill="none" stroke="black" d="M1294.41,-797.74C1259.4,-776.92 1192,-728.81 1192,-667 1192,-667 1192,-667 1192,-377 1192,-275.69 1344.65,-246.35 1417.8,-238.1"/>
<polygon fill="black" stroke="black" points="1418.14,-241.58 1427.73,-237.07 1417.42,-234.62 1418.14,-241.58"/>
</g>
<!-- pf&#45;&gt;tv -->
<g id="edge76" class="edge">
<title>pf&#45;&gt;tv</title>
<path fill="none" stroke="black" d="M1331.2,-795.5C1343.32,-785.4 1360.13,-771.39 1373.97,-759.86"/>
<polygon fill="black" stroke="black" points="1375.96,-762.75 1381.4,-753.66 1371.48,-757.38 1375.96,-762.75"/>
</g>
<!-- rl -->
<g id="node53" class="node">
<title>rl</title>
<ellipse fill="none" stroke="blue" cx="1361" cy="-666" rx="27" ry="18"/>
<text text-anchor="middle" x="1361" y="-660.95" font-family="Times,serif" font-size="14.00">rl</text>
</g>
<!-- pf&#45;&gt;rl -->
<g id="edge77" class="edge">
<title>pf&#45;&gt;rl</title>
<path fill="none" stroke="black" d="M1320.46,-792.15C1328.27,-768.03 1342.74,-723.36 1352.11,-694.43"/>
<polygon fill="black" stroke="black" points="1355.33,-695.86 1355.08,-685.26 1348.67,-693.7 1355.33,-695.86"/>
</g>
<!-- sb -->
<g id="node21" class="node">
<title>sb</title>
<ellipse fill="none" stroke="blue" cx="264" cy="-594" rx="27" ry="18"/>
<text text-anchor="middle" x="264" y="-588.95" font-family="Times,serif" font-size="14.00">sb</text>
</g>
<!-- sb&#45;&gt;vr -->
<g id="edge19" class="edge">
<title>sb&#45;&gt;vr</title>
<path fill="none" stroke="black" d="M258.3,-611.61C254.83,-622 250.42,-635.71 247,-648 234.18,-694.13 221.94,-748.45 214.97,-780.74"/>
<polygon fill="black" stroke="black" points="211.55,-779.98 212.88,-790.49 218.39,-781.44 211.55,-779.98"/>
</g>
<!-- lz -->
<g id="node22" class="node">
<title>lz</title>
<ellipse fill="none" stroke="blue" cx="264" cy="-522" rx="27" ry="18"/>
<text text-anchor="middle" x="264" y="-516.95" font-family="Times,serif" font-size="14.00">lz</text>
</g>
<!-- sb&#45;&gt;lz -->
<g id="edge18" class="edge">
<title>sb&#45;&gt;lz</title>
<path fill="none" stroke="black" d="M264,-575.7C264,-568.41 264,-559.73 264,-551.54"/>
<polygon fill="black" stroke="black" points="267.5,-551.62 264,-541.62 260.5,-551.62 267.5,-551.62"/>
</g>
<!-- lz&#45;&gt;vr -->
<g id="edge83" class="edge">
<title>lz&#45;&gt;vr</title>
<path fill="none" stroke="black" d="M278.89,-537.52C316.51,-575.95 408.78,-682.46 357,-756 332.37,-790.99 282.4,-803 247.36,-807.05"/>
<polygon fill="black" stroke="black" points="247.23,-803.55 237.62,-808 247.91,-810.52 247.23,-803.55"/>
</g>
<!-- lz&#45;&gt;kk -->
<g id="edge82" class="edge">
<title>lz&#45;&gt;kk</title>
<path fill="none" stroke="black" d="M251.63,-505.81C244.31,-496.82 234.87,-485.23 226.57,-475.03"/>
<polygon fill="black" stroke="black" points="229.33,-472.88 220.3,-467.33 223.9,-477.3 229.33,-472.88"/>
</g>
<!-- mt -->
<g id="node23" class="node">
<title>mt</title>
<ellipse fill="none" stroke="blue" cx="1633" cy="-18" rx="27" ry="18"/>
<text text-anchor="middle" x="1633" y="-12.95" font-family="Times,serif" font-size="14.00">mt</text>
</g>
<!-- mt&#45;&gt;ts -->
<g id="edge20" class="edge">
<title>mt&#45;&gt;ts</title>
<path fill="none" stroke="black" d="M1627.67,-35.85C1619.8,-62.25 1606,-115.08 1606,-161 1606,-667 1606,-667 1606,-667 1606,-712.37 1623.4,-724.45 1656,-756 1675.17,-774.56 1702.14,-788.19 1723.53,-796.97"/>
<polygon fill="black" stroke="black" points="1722.14,-800.19 1732.73,-800.58 1724.69,-793.67 1722.14,-800.19"/>
</g>
<!-- ts&#45;&gt;jr -->
<g id="edge29" class="edge">
<title>ts&#45;&gt;jr</title>
<path fill="none" stroke="black" d="M1763.86,-827.79C1764.66,-835.25 1764.92,-844.24 1764.64,-852.69"/>
<polygon fill="black" stroke="black" points="1761.16,-852.33 1763.98,-862.54 1768.14,-852.8 1761.16,-852.33"/>
</g>
<!-- dl -->
<g id="node27" class="node">
<title>dl</title>
<ellipse fill="none" stroke="green" cx="1099" cy="-738" rx="27" ry="18"/>
<text text-anchor="middle" x="1099" y="-732.95" font-family="Times,serif" font-size="14.00">dl</text>
</g>
<!-- ts&#45;&gt;dl -->
<g id="edge24" class="edge">
<title>ts&#45;&gt;dl</title>
<path fill="none" stroke="black" d="M1731.35,-806.17C1628.46,-795.24 1256.92,-755.77 1136.77,-743.01"/>
<polygon fill="black" stroke="black" points="1137.44,-739.56 1127.12,-741.99 1136.7,-746.52 1137.44,-739.56"/>
</g>
<!-- ts&#45;&gt;qm -->
<g id="edge25" class="edge">
<title>ts&#45;&gt;qm</title>
<path fill="none" stroke="black" d="M1770.21,-793.46C1777.11,-784.67 1785.91,-773.48 1793.73,-763.53"/>
<polygon fill="black" stroke="black" points="1796.47,-765.71 1799.89,-755.68 1790.96,-761.38 1796.47,-765.71"/>
</g>
<!-- kx -->
<g id="node29" class="node">
<title>kx</title>
<ellipse fill="none" stroke="blue" cx="1718" cy="-234" rx="27" ry="18"/>
<text text-anchor="middle" x="1718" y="-228.95" font-family="Times,serif" font-size="14.00">kx</text>
</g>
<!-- ts&#45;&gt;kx -->
<g id="edge26" class="edge">
<title>ts&#45;&gt;kx</title>
<path fill="none" stroke="black" d="M1743.7,-794.23C1721.69,-769.85 1682,-718.73 1682,-667 1682,-667 1682,-667 1682,-377 1682,-336.09 1696.21,-290.54 1706.78,-262.32"/>
<polygon fill="black" stroke="black" points="1709.99,-263.7 1710.34,-253.11 1703.47,-261.17 1709.99,-263.7"/>
</g>
<!-- lq -->
<g id="node30" class="node">
<title>lq</title>
<ellipse fill="none" stroke="blue" cx="1813" cy="-378" rx="27" ry="18"/>
<text text-anchor="middle" x="1813" y="-372.95" font-family="Times,serif" font-size="14.00">lq</text>
</g>
<!-- ts&#45;&gt;lq -->
<g id="edge27" class="edge">
<title>ts&#45;&gt;lq</title>
<path fill="none" stroke="black" d="M1750.49,-792.34C1739.42,-766.2 1720,-713.7 1720,-667 1720,-667 1720,-667 1720,-521 1720,-471.27 1760.4,-425.41 1787.95,-399.92"/>
<polygon fill="black" stroke="black" points="1790.13,-402.66 1795.25,-393.39 1785.46,-397.45 1790.13,-402.66"/>
</g>
<!-- bf -->
<g id="node31" class="node">
<title>bf</title>
<ellipse fill="none" stroke="blue" cx="1813" cy="-666" rx="27" ry="18"/>
<text text-anchor="middle" x="1813" y="-660.95" font-family="Times,serif" font-size="14.00">bf</text>
</g>
<!-- ts&#45;&gt;bf -->
<g id="edge28" class="edge">
<title>ts&#45;&gt;bf</title>
<path fill="none" stroke="black" d="M1759.7,-791.67C1761.95,-773.29 1766.89,-743.69 1777,-720 1781.25,-710.04 1787.48,-699.99 1793.56,-691.36"/>
<polygon fill="black" stroke="black" points="1796.23,-693.64 1799.35,-683.52 1790.6,-689.48 1796.23,-693.64"/>
</g>
<!-- fl&#45;&gt;pf -->
<g id="edge74" class="edge">
<title>fl&#45;&gt;pf</title>
<path fill="none" stroke="black" d="M1463.11,-323.7C1473.6,-349.89 1492,-402.46 1492,-449 1492,-667 1492,-667 1492,-667 1492,-709.34 1488.09,-726.21 1458,-756 1429.51,-784.2 1384.7,-797.59 1352.84,-803.81"/>
<polygon fill="black" stroke="black" points="1352.46,-800.32 1343.23,-805.53 1353.69,-807.22 1352.46,-800.32"/>
</g>
<!-- fl&#45;&gt;pp -->
<g id="edge73" class="edge">
<title>fl&#45;&gt;pp</title>
<path fill="none" stroke="black" d="M1456,-287.7C1456,-280.41 1456,-271.73 1456,-263.54"/>
<polygon fill="black" stroke="black" points="1459.5,-263.62 1456,-253.62 1452.5,-263.62 1459.5,-263.62"/>
</g>
<!-- pm&#45;&gt;dt -->
<g id="edge23" class="edge">
<title>pm&#45;&gt;dt</title>
<path fill="none" stroke="black" d="M1018.65,-720.76C1014.42,-712.55 1009.19,-702.37 1004.42,-693.09"/>
<polygon fill="black" stroke="black" points="1007.68,-691.79 1000,-684.49 1001.46,-694.99 1007.68,-691.79"/>
</g>
<!-- dl&#45;&gt;dt -->
<g id="edge99" class="edge">
<title>dl&#45;&gt;dt</title>
<path fill="none" stroke="black" d="M1080.19,-724.81C1063.41,-713.93 1038.61,-697.86 1019.41,-685.42"/>
<polygon fill="black" stroke="black" points="1021.52,-682.61 1011.23,-680.11 1017.72,-688.49 1021.52,-682.61"/>
</g>
<!-- qm&#45;&gt;bf -->
<g id="edge40" class="edge">
<title>qm&#45;&gt;bf</title>
<path fill="none" stroke="black" d="M1813,-719.7C1813,-712.41 1813,-703.73 1813,-695.54"/>
<polygon fill="black" stroke="black" points="1816.5,-695.62 1813,-685.62 1809.5,-695.62 1816.5,-695.62"/>
</g>
<!-- xg -->
<g id="node56" class="node">
<title>xg</title>
<ellipse fill="none" stroke="blue" cx="1718" cy="-162" rx="27" ry="18"/>
<text text-anchor="middle" x="1718" y="-156.95" font-family="Times,serif" font-size="14.00">xg</text>
</g>
<!-- kx&#45;&gt;xg -->
<g id="edge84" class="edge">
<title>kx&#45;&gt;xg</title>
<path fill="none" stroke="black" d="M1718,-215.7C1718,-208.41 1718,-199.73 1718,-191.54"/>
<polygon fill="black" stroke="black" points="1721.5,-191.62 1718,-181.62 1714.5,-191.62 1721.5,-191.62"/>
</g>
<!-- gk -->
<g id="node42" class="node">
<title>gk</title>
<ellipse fill="none" stroke="blue" cx="1813" cy="-306" rx="27" ry="18"/>
<text text-anchor="middle" x="1813" y="-300.95" font-family="Times,serif" font-size="14.00">gk</text>
</g>
<!-- lq&#45;&gt;gk -->
<g id="edge45" class="edge">
<title>lq&#45;&gt;gk</title>
<path fill="none" stroke="black" d="M1813,-359.7C1813,-352.41 1813,-343.73 1813,-335.54"/>
<polygon fill="black" stroke="black" points="1816.5,-335.62 1813,-325.62 1809.5,-335.62 1816.5,-335.62"/>
</g>
<!-- rr -->
<g id="node32" class="node">
<title>rr</title>
<ellipse fill="none" stroke="blue" cx="1851" cy="-594" rx="27" ry="18"/>
<text text-anchor="middle" x="1851" y="-588.95" font-family="Times,serif" font-size="14.00">rr</text>
</g>
<!-- bf&#45;&gt;rr -->
<g id="edge30" class="edge">
<title>bf&#45;&gt;rr</title>
<path fill="none" stroke="black" d="M1821.81,-648.76C1826.27,-640.55 1831.8,-630.37 1836.84,-621.09"/>
<polygon fill="black" stroke="black" points="1839.82,-622.94 1841.51,-612.48 1833.67,-619.6 1839.82,-622.94"/>
</g>
<!-- rr&#45;&gt;ts -->
<g id="edge100" class="edge">
<title>rr&#45;&gt;ts</title>
<path fill="none" stroke="black" d="M1855.88,-611.95C1863.77,-642.96 1875.89,-709.88 1849,-756 1836.96,-776.66 1813.47,-790.04 1793.37,-798.19"/>
<polygon fill="black" stroke="black" points="1792.21,-794.89 1784.07,-801.66 1794.66,-801.44 1792.21,-794.89"/>
</g>
<!-- cd -->
<g id="node40" class="node">
<title>cd</title>
<ellipse fill="none" stroke="blue" cx="1870" cy="-522" rx="27" ry="18"/>
<text text-anchor="middle" x="1870" y="-516.95" font-family="Times,serif" font-size="14.00">cd</text>
</g>
<!-- rr&#45;&gt;cd -->
<g id="edge101" class="edge">
<title>rr&#45;&gt;cd</title>
<path fill="none" stroke="black" d="M1855.6,-576.05C1857.65,-568.49 1860.13,-559.37 1862.44,-550.85"/>
<polygon fill="black" stroke="black" points="1865.8,-551.82 1865.05,-541.25 1859.05,-549.98 1865.8,-551.82"/>
</g>
<!-- vl -->
<g id="node33" class="node">
<title>vl</title>
<ellipse fill="none" stroke="blue" cx="583" cy="-450" rx="27" ry="18"/>
<text text-anchor="middle" x="583" y="-444.95" font-family="Times,serif" font-size="14.00">vl</text>
</g>
<!-- vl&#45;&gt;xd -->
<g id="edge31" class="edge">
<title>vl&#45;&gt;xd</title>
<path fill="none" stroke="black" d="M579.64,-467.97C574.69,-494.52 566,-547.56 566,-593 566,-667 566,-667 566,-667 566,-715.01 602.22,-760.85 627.37,-786.89"/>
<polygon fill="black" stroke="black" points="624.8,-789.27 634.34,-793.87 629.75,-784.32 624.8,-789.27"/>
</g>
<!-- vl&#45;&gt;bc -->
<g id="edge32" class="edge">
<title>vl&#45;&gt;bc</title>
<path fill="none" stroke="black" d="M574.19,-432.76C569.73,-424.55 564.2,-414.37 559.16,-405.09"/>
<polygon fill="black" stroke="black" points="562.33,-403.6 554.49,-396.48 556.18,-406.94 562.33,-403.6"/>
</g>
<!-- bc&#45;&gt;qx -->
<g id="edge98" class="edge">
<title>bc&#45;&gt;qx</title>
<path fill="none" stroke="black" d="M540.4,-360.05C538.35,-352.49 535.87,-343.37 533.56,-334.85"/>
<polygon fill="black" stroke="black" points="536.95,-333.98 530.95,-325.25 530.2,-335.82 536.95,-333.98"/>
</g>
<!-- gx&#45;&gt;vr -->
<g id="edge59" class="edge">
<title>gx&#45;&gt;vr</title>
<path fill="none" stroke="black" d="M229.46,-864.05C226.48,-856.32 222.87,-846.96 219.52,-838.27"/>
<polygon fill="black" stroke="black" points="222.88,-837.27 216.02,-829.2 216.35,-839.79 222.88,-837.27"/>
</g>
<!-- zr -->
<g id="node36" class="node">
<title>zr</title>
<ellipse fill="none" stroke="blue" cx="1304" cy="-522" rx="27" ry="18"/>
<text text-anchor="middle" x="1304" y="-516.95" font-family="Times,serif" font-size="14.00">zr</text>
</g>
<!-- zr&#45;&gt;vx -->
<g id="edge35" class="edge">
<title>zr&#45;&gt;vx</title>
<path fill="none" stroke="black" d="M1304,-503.7C1304,-496.41 1304,-487.73 1304,-479.54"/>
<polygon fill="black" stroke="black" points="1307.5,-479.62 1304,-469.62 1300.5,-479.62 1307.5,-479.62"/>
</g>
<!-- zr&#45;&gt;pf -->
<g id="edge36" class="edge">
<title>zr&#45;&gt;pf</title>
<path fill="none" stroke="black" d="M1297.11,-539.86C1293.3,-550.12 1288.94,-563.59 1287,-576 1275.46,-649.74 1294.78,-737.27 1306.7,-781.08"/>
<polygon fill="black" stroke="black" points="1303.28,-781.85 1309.35,-790.53 1310.02,-779.96 1303.28,-781.85"/>
</g>
<!-- jg&#45;&gt;sb -->
<g id="edge39" class="edge">
<title>jg&#45;&gt;sb</title>
<path fill="none" stroke="black" d="M278.4,-648.05C276.35,-640.49 273.87,-631.37 271.56,-622.85"/>
<polygon fill="black" stroke="black" points="274.95,-621.98 268.95,-613.25 268.2,-623.82 274.95,-621.98"/>
</g>
<!-- xv -->
<g id="node38" class="node">
<title>xv</title>
<ellipse fill="none" stroke="blue" cx="697" cy="-666" rx="27" ry="18"/>
<text text-anchor="middle" x="697" y="-660.95" font-family="Times,serif" font-size="14.00">xv</text>
</g>
<!-- xv&#45;&gt;xd -->
<g id="edge42" class="edge">
<title>xv&#45;&gt;xd</title>
<path fill="none" stroke="black" d="M691.55,-683.82C683.74,-707.94 669.27,-752.6 659.89,-781.54"/>
<polygon fill="black" stroke="black" points="656.68,-780.12 656.92,-790.71 663.34,-782.28 656.68,-780.12"/>
</g>
<!-- xv&#45;&gt;hq -->
<g id="edge41" class="edge">
<title>xv&#45;&gt;hq</title>
<path fill="none" stroke="black" d="M688.19,-648.76C683.73,-640.55 678.2,-630.37 673.16,-621.09"/>
<polygon fill="black" stroke="black" points="676.33,-619.6 668.49,-612.48 670.18,-622.94 676.33,-619.6"/>
</g>
<!-- hq&#45;&gt;zt -->
<g id="edge53" class="edge">
<title>hq&#45;&gt;zt</title>
<path fill="none" stroke="black" d="M650.19,-576.76C645.73,-568.55 640.2,-558.37 635.16,-549.09"/>
<polygon fill="black" stroke="black" points="638.33,-547.6 630.49,-540.48 632.18,-550.94 638.33,-547.6"/>
</g>
<!-- cd&#45;&gt;ts -->
<g id="edge44" class="edge">
<title>cd&#45;&gt;ts</title>
<path fill="none" stroke="black" d="M1876.89,-539.86C1880.7,-550.12 1885.06,-563.59 1887,-576 1899.43,-655.43 1916.03,-690.79 1869,-756 1851.45,-780.33 1819.74,-793.92 1794.69,-801.23"/>
<polygon fill="black" stroke="black" points="1793.94,-797.8 1785.18,-803.77 1795.75,-804.57 1793.94,-797.8"/>
</g>
<!-- vn -->
<g id="node41" class="node">
<title>vn</title>
<ellipse fill="none" stroke="blue" cx="1870" cy="-450" rx="27" ry="18"/>
<text text-anchor="middle" x="1870" y="-444.95" font-family="Times,serif" font-size="14.00">vn</text>
</g>
<!-- cd&#45;&gt;vn -->
<g id="edge43" class="edge">
<title>cd&#45;&gt;vn</title>
<path fill="none" stroke="black" d="M1870,-503.7C1870,-496.41 1870,-487.73 1870,-479.54"/>
<polygon fill="black" stroke="black" points="1873.5,-479.62 1870,-469.62 1866.5,-479.62 1873.5,-479.62"/>
</g>
<!-- vn&#45;&gt;ts -->
<g id="edge49" class="edge">
<title>vn&#45;&gt;ts</title>
<path fill="none" stroke="black" d="M1883.92,-465.84C1905.35,-490.32 1944,-541.57 1944,-593 1944,-667 1944,-667 1944,-667 1944,-712.59 1927.51,-726.2 1893,-756 1864.9,-780.26 1824.39,-794.16 1795.09,-801.58"/>
<polygon fill="black" stroke="black" points="1794.46,-798.13 1785.54,-803.85 1796.08,-804.94 1794.46,-798.13"/>
</g>
<!-- vn&#45;&gt;lq -->
<g id="edge50" class="edge">
<title>vn&#45;&gt;lq</title>
<path fill="none" stroke="black" d="M1857.63,-433.81C1850.31,-424.82 1840.87,-413.23 1832.57,-403.03"/>
<polygon fill="black" stroke="black" points="1835.33,-400.88 1826.3,-395.33 1829.9,-405.3 1835.33,-400.88"/>
</g>
<!-- gk&#45;&gt;ts -->
<g id="edge70" class="edge">
<title>gk&#45;&gt;ts</title>
<path fill="none" stroke="black" d="M1837.21,-314.62C1883.94,-331 1982,-374.27 1982,-449 1982,-667 1982,-667 1982,-667 1982,-713.97 1962.27,-727.41 1925,-756 1886.88,-785.23 1832.25,-798.57 1795.98,-804.49"/>
<polygon fill="black" stroke="black" points="1795.75,-800.99 1786.39,-805.94 1796.8,-807.91 1795.75,-800.99"/>
</g>
<!-- gk&#45;&gt;kx -->
<g id="edge69" class="edge">
<title>gk&#45;&gt;kx</title>
<path fill="none" stroke="black" d="M1795.58,-292.16C1781.34,-281.67 1760.97,-266.66 1744.68,-254.66"/>
<polygon fill="black" stroke="black" points="1746.98,-252.01 1736.85,-248.89 1742.83,-257.64 1746.98,-252.01"/>
</g>
<!-- cn -->
<g id="node44" class="node">
<title>cn</title>
<ellipse fill="none" stroke="blue" cx="131" cy="-306" rx="27" ry="18"/>
<text text-anchor="middle" x="131" y="-300.95" font-family="Times,serif" font-size="14.00">cn</text>
</g>
<!-- cn&#45;&gt;vr -->
<g id="edge47" class="edge">
<title>cn&#45;&gt;vr</title>
<path fill="none" stroke="black" d="M127.64,-323.97C122.69,-350.52 114,-403.56 114,-449 114,-667 114,-667 114,-667 114,-717.05 155.27,-762.81 183.41,-788.2"/>
<polygon fill="black" stroke="black" points="181.04,-790.77 190.88,-794.71 185.64,-785.5 181.04,-790.77"/>
</g>
<!-- cn&#45;&gt;tr -->
<g id="edge48" class="edge">
<title>cn&#45;&gt;tr</title>
<path fill="none" stroke="black" d="M122.19,-288.76C117.73,-280.55 112.2,-270.37 107.16,-261.09"/>
<polygon fill="black" stroke="black" points="110.33,-259.6 102.49,-252.48 104.18,-262.94 110.33,-259.6"/>
</g>
<!-- tr&#45;&gt;xz -->
<g id="edge62" class="edge">
<title>tr&#45;&gt;xz</title>
<path fill="none" stroke="black" d="M80.79,-217.46C73.89,-208.67 65.09,-197.48 57.27,-187.53"/>
<polygon fill="black" stroke="black" points="60.04,-185.38 51.11,-179.68 54.53,-189.71 60.04,-185.38"/>
</g>
<!-- qn -->
<g id="node46" class="node">
<title>qn</title>
<ellipse fill="none" stroke="blue" cx="1323" cy="-594" rx="27" ry="18"/>
<text text-anchor="middle" x="1323" y="-588.95" font-family="Times,serif" font-size="14.00">qn</text>
</g>
<!-- qn&#45;&gt;pf -->
<g id="edge52" class="edge">
<title>qn&#45;&gt;pf</title>
<path fill="none" stroke="black" d="M1322.36,-612.23C1320.98,-649.01 1317.75,-735.5 1316.06,-780.57"/>
<polygon fill="black" stroke="black" points="1312.57,-780.21 1315.7,-790.34 1319.57,-780.47 1312.57,-780.21"/>
</g>
<!-- qn&#45;&gt;zr -->
<g id="edge51" class="edge">
<title>qn&#45;&gt;zr</title>
<path fill="none" stroke="black" d="M1318.4,-576.05C1316.35,-568.49 1313.87,-559.37 1311.56,-550.85"/>
<polygon fill="black" stroke="black" points="1314.95,-549.98 1308.95,-541.25 1308.2,-551.82 1314.95,-549.98"/>
</g>
<!-- zt&#45;&gt;vl -->
<g id="edge102" class="edge">
<title>zt&#45;&gt;vl</title>
<path fill="none" stroke="black" d="M612.19,-504.76C607.73,-496.55 602.2,-486.37 597.16,-477.09"/>
<polygon fill="black" stroke="black" points="600.33,-475.6 592.49,-468.48 594.18,-478.94 600.33,-475.6"/>
</g>
<!-- zn -->
<g id="node49" class="node">
<title>zn</title>
<ellipse fill="none" stroke="blue" cx="1475" cy="-162" rx="27" ry="18"/>
<text text-anchor="middle" x="1475" y="-156.95" font-family="Times,serif" font-size="14.00">zn</text>
</g>
<!-- pp&#45;&gt;zn -->
<g id="edge56" class="edge">
<title>pp&#45;&gt;zn</title>
<path fill="none" stroke="black" d="M1460.6,-216.05C1462.65,-208.49 1465.13,-199.37 1467.44,-190.85"/>
<polygon fill="black" stroke="black" points="1470.8,-191.82 1470.05,-181.25 1464.05,-189.98 1470.8,-191.82"/>
</g>
<!-- zn&#45;&gt;pf -->
<g id="edge105" class="edge">
<title>zn&#45;&gt;pf</title>
<path fill="none" stroke="black" d="M1485.6,-178.84C1501.59,-204.28 1530,-256.36 1530,-305 1530,-667 1530,-667 1530,-667 1530,-711.32 1518.83,-727.36 1485,-756 1447.42,-787.81 1390.8,-800.55 1353.38,-805.64"/>
<polygon fill="black" stroke="black" points="1352.96,-802.17 1343.45,-806.86 1353.81,-809.12 1352.96,-802.17"/>
</g>
<!-- vh -->
<g id="node59" class="node">
<title>vh</title>
<ellipse fill="none" stroke="blue" cx="1475" cy="-90" rx="27" ry="18"/>
<text text-anchor="middle" x="1475" y="-84.95" font-family="Times,serif" font-size="14.00">vh</text>
</g>
<!-- zn&#45;&gt;vh -->
<g id="edge104" class="edge">
<title>zn&#45;&gt;vh</title>
<path fill="none" stroke="black" d="M1475,-143.7C1475,-136.41 1475,-127.73 1475,-119.54"/>
<polygon fill="black" stroke="black" points="1478.5,-119.62 1475,-109.62 1471.5,-119.62 1478.5,-119.62"/>
</g>
<!-- kk&#45;&gt;vf -->
<g id="edge57" class="edge">
<title>kk&#45;&gt;vf</title>
<path fill="none" stroke="black" d="M198.19,-432.76C193.73,-424.55 188.2,-414.37 183.16,-405.09"/>
<polygon fill="black" stroke="black" points="186.33,-403.6 178.49,-396.48 180.18,-406.94 186.33,-403.6"/>
</g>
<!-- vf&#45;&gt;cn -->
<g id="edge106" class="edge">
<title>vf&#45;&gt;cn</title>
<path fill="none" stroke="black" d="M160.19,-360.76C155.73,-352.55 150.2,-342.37 145.16,-333.09"/>
<polygon fill="black" stroke="black" points="148.33,-331.6 140.49,-324.48 142.18,-334.94 148.33,-331.6"/>
</g>
<!-- tv&#45;&gt;rl -->
<g id="edge58" class="edge">
<title>tv&#45;&gt;rl</title>
<path fill="none" stroke="black" d="M1390.19,-720.76C1385.73,-712.55 1380.2,-702.37 1375.16,-693.09"/>
<polygon fill="black" stroke="black" points="1378.33,-691.6 1370.49,-684.48 1372.18,-694.94 1378.33,-691.6"/>
</g>
<!-- rl&#45;&gt;qn -->
<g id="edge103" class="edge">
<title>rl&#45;&gt;qn</title>
<path fill="none" stroke="black" d="M1352.19,-648.76C1347.73,-640.55 1342.2,-630.37 1337.16,-621.09"/>
<polygon fill="black" stroke="black" points="1340.33,-619.6 1332.49,-612.48 1334.18,-622.94 1340.33,-619.6"/>
</g>
<!-- ks&#45;&gt;dt -->
<g id="edge109" class="edge">
<title>ks&#45;&gt;dt</title>
<path fill="none" stroke="black" d="M901.81,-724.81C918.59,-713.93 943.39,-697.86 962.59,-685.42"/>
<polygon fill="black" stroke="black" points="964.28,-688.49 970.77,-680.11 960.48,-682.61 964.28,-688.49"/>
</g>
<!-- pb -->
<g id="node55" class="node">
<title>pb</title>
<ellipse fill="none" stroke="blue" cx="1661" cy="-90" rx="27" ry="18"/>
<text text-anchor="middle" x="1661" y="-84.95" font-family="Times,serif" font-size="14.00">pb</text>
</g>
<!-- pb&#45;&gt;mt -->
<g id="edge81" class="edge">
<title>pb&#45;&gt;mt</title>
<path fill="none" stroke="black" d="M1654.36,-72.41C1651.23,-64.57 1647.4,-54.99 1643.85,-46.13"/>
<polygon fill="black" stroke="black" points="1647.11,-44.86 1640.15,-36.88 1640.61,-47.46 1647.11,-44.86"/>
</g>
<!-- pb&#45;&gt;ts -->
<g id="edge80" class="edge">
<title>pb&#45;&gt;ts</title>
<path fill="none" stroke="black" d="M1657.64,-107.97C1652.69,-134.52 1644,-187.56 1644,-233 1644,-667 1644,-667 1644,-667 1644,-721.38 1695.47,-766.8 1729.24,-790.74"/>
<polygon fill="black" stroke="black" points="1727.18,-793.57 1737.41,-796.33 1731.14,-787.8 1727.18,-793.57"/>
</g>
<!-- xg&#45;&gt;ts -->
<g id="edge96" class="edge">
<title>xg&#45;&gt;ts</title>
<path fill="none" stroke="black" d="M1745.33,-163.38C1819.67,-165.98 2020,-184.2 2020,-305 2020,-667 2020,-667 2020,-667 2020,-767.47 1869.24,-797.22 1796.45,-805.73"/>
<polygon fill="black" stroke="black" points="1796.12,-802.25 1786.56,-806.8 1796.87,-809.21 1796.12,-802.25"/>
</g>
<!-- xg&#45;&gt;pb -->
<g id="edge97" class="edge">
<title>xg&#45;&gt;pb</title>
<path fill="none" stroke="black" d="M1705.63,-145.81C1698.31,-136.82 1688.87,-125.23 1680.57,-115.03"/>
<polygon fill="black" stroke="black" points="1683.33,-112.88 1674.3,-107.33 1677.9,-117.3 1683.33,-112.88"/>
</g>
<!-- cb -->
<g id="node57" class="node">
<title>cb</title>
<ellipse fill="none" stroke="blue" cx="1315" cy="-18" rx="27" ry="18"/>
<text text-anchor="middle" x="1315" y="-12.95" font-family="Times,serif" font-size="14.00">cb</text>
</g>
<!-- cb&#45;&gt;pf -->
<g id="edge85" class="edge">
<title>cb&#45;&gt;pf</title>
<path fill="none" stroke="black" d="M1291.24,-27.23C1246.46,-44.43 1154,-88.7 1154,-161 1154,-667 1154,-667 1154,-667 1154,-712.59 1171.63,-724.93 1205,-756 1226.33,-775.86 1256.48,-789.68 1279.82,-798.21"/>
<polygon fill="black" stroke="black" points="1278.64,-801.51 1289.24,-801.48 1280.94,-794.9 1278.64,-801.51"/>
</g>
<!-- gc&#45;&gt;xv -->
<g id="edge86" class="edge">
<title>gc&#45;&gt;xv</title>
<path fill="none" stroke="black" d="M726.19,-720.76C721.73,-712.55 716.2,-702.37 711.16,-693.09"/>
<polygon fill="black" stroke="black" points="714.33,-691.6 706.49,-684.48 708.18,-694.94 714.33,-691.6"/>
</g>
<!-- vh&#45;&gt;pf -->
<g id="edge107" class="edge">
<title>vh&#45;&gt;pf</title>
<path fill="none" stroke="black" d="M1491.63,-104.38C1518.38,-127.52 1568,-177.89 1568,-233 1568,-667 1568,-667 1568,-667 1568,-713.04 1551.75,-728.27 1515,-756 1467.17,-792.09 1396.75,-803.65 1353.49,-807.32"/>
<polygon fill="black" stroke="black" points="1353.28,-803.83 1343.56,-808.06 1353.79,-810.81 1353.28,-803.83"/>
</g>
<!-- vh&#45;&gt;cb -->
<g id="edge108" class="edge">
<title>vh&#45;&gt;cb</title>
<path fill="none" stroke="black" d="M1452.75,-79.27C1425.49,-67.34 1379.05,-47.02 1347.71,-33.31"/>
<polygon fill="black" stroke="black" points="1349.27,-30.17 1338.7,-29.37 1346.46,-36.58 1349.27,-30.17"/>
</g>
</g>
</svg>
